<?xml version="1.0" standalone="no"?><!DOCTYPE svg PUBLIC "-//W3C//DTD SVG 1.1//EN" "http://www.w3.org/Graphics/SVG/1.1/DTD/svg11.dtd"><svg t="1736237991291" class="icon" viewBox="0 0 1024 1024" version="1.1" xmlns="http://www.w3.org/2000/svg" p-id="6826" width="128" height="128" xmlns:xlink="http://www.w3.org/1999/xlink"><path d="M385.806 851.434c-32.65 0-61.433-17.116-76.989-45.788-15.635-28.811-14.281-62.453 3.622-89.991 44.068-67.795 118.591-108.269 199.347-108.269 81.701 0 156.697 41.205 200.607 110.222 17.131 26.927 18.124 59.826 2.652 88.007-15.752 28.691-44.629 45.819-77.241 45.819H385.806z" fill="#036EB8" p-id="6827"></path><path d="M511.788 613.836c82.067 0 154.145 42.768 195.162 107.232 34.146 53.666-5.536 123.916-69.144 123.916h-252c-64.614 0-103.176-71.641-67.96-125.814 41.218-63.404 112.683-105.334 193.942-105.334m0-12.902c-82.948 0-159.493 41.572-204.758 111.204-19.212 29.555-20.664 65.662-3.882 96.587 16.704 30.782 47.604 49.16 82.658 49.16h252c35.004 0 65.992-18.38 82.893-49.166 16.622-30.277 15.551-65.634-2.865-94.577-45.102-70.887-122.129-113.208-206.046-113.208z" fill="#171C61" p-id="6828"></path><path d="M333.97 735.296c41.216-63.404 112.682-105.334 193.941-105.334 59.708 0 114.112 22.654 155.13 59.816-42.29-46.635-103.343-75.942-171.257-75.942-81.259 0-152.725 41.93-193.941 105.334-24.985 38.435-12.809 85.635 19.436 109.832-19.394-25.756-23.53-62.599-3.309-93.706z" fill="#209BE0" p-id="6829"></path><path d="M706.946 721.068c-19.662-30.902-46.475-56.797-78.091-75.407a232.292 232.292 0 0 1 36.968 44.604c34.146 53.666-5.536 123.916-69.144 123.916h-252a82.059 82.059 0 0 1-25.5-4.027c14.222 20.578 37.821 34.831 66.623 34.831h252c63.608-0.001 103.29-70.251 69.144-123.917z" fill="#006299" p-id="6830"></path><path d="M303.592 516.355c-31.419 0-56.979-25.563-56.979-56.982s25.56-56.982 56.979-56.982 56.982 25.563 56.982 56.982-25.563 56.982-56.982 56.982z" fill="#FEC6CF" p-id="6831"></path><path d="M303.592 408.842c27.907 0 50.531 22.624 50.531 50.531s-22.623 50.531-50.531 50.531-50.53-22.624-50.53-50.531 22.623-50.531 50.53-50.531m0-12.901c-34.976 0-63.432 28.456-63.432 63.432s28.455 63.432 63.432 63.432 63.432-28.456 63.432-63.432-28.455-63.432-63.432-63.432z" fill="#171C61" p-id="6832"></path><path d="M303.592 459.373m-50.53 0a50.53 50.53 0 1 0 101.06 0 50.53 50.53 0 1 0-101.06 0Z" fill="#EAA9B6" p-id="6833"></path><path d="M274.161 459.373c0-24.287 17.141-44.555 39.981-49.41a50.708 50.708 0 0 0-10.55-1.121c-27.907 0-50.53 22.623-50.53 50.53s22.623 50.53 50.53 50.53c3.62 0 7.145-0.397 10.55-1.121-22.84-4.853-39.981-25.121-39.981-49.408zM720.407 516.355c-31.419 0-56.979-25.563-56.979-56.982s25.56-56.982 56.979-56.982 56.982 25.563 56.982 56.982-25.563 56.982-56.982 56.982z" fill="#FEC6CF" p-id="6834"></path><path d="M720.408 408.842c27.907 0 50.53 22.624 50.53 50.531s-22.623 50.531-50.53 50.531-50.531-22.624-50.531-50.531 22.624-50.531 50.531-50.531m0-12.901c-34.976 0-63.432 28.456-63.432 63.432s28.456 63.432 63.432 63.432 63.432-28.456 63.432-63.432-28.456-63.432-63.432-63.432z" fill="#171C61" p-id="6835"></path><path d="M720.408 459.373m-50.53 0a50.53 50.53 0 1 0 101.06 0 50.53 50.53 0 1 0-101.06 0Z" fill="#EAA9B6" p-id="6836"></path><path d="M749.839 459.373c0-24.287-17.141-44.555-39.981-49.41a50.708 50.708 0 0 1 10.55-1.121c27.907 0 50.53 22.623 50.53 50.53s-22.623 50.53-50.53 50.53c-3.62 0-7.145-0.397-10.55-1.121 22.84-4.853 39.981-25.121 39.981-49.408z" fill="#FEC6CF" p-id="6837"></path><path d="M466.638 687.175m-55.637 0a55.637 55.637 0 1 0 111.274 0 55.637 55.637 0 1 0-111.274 0Z" fill="#D0DBFB" p-id="6838"></path><path d="M466.639 637.99c27.165 0 49.186 22.021 49.186 49.186s-22.021 49.186-49.186 49.186-49.186-22.021-49.186-49.186 22.021-49.186 49.186-49.186m0-12.901c-34.235 0-62.088 27.852-62.088 62.088s27.852 62.088 62.088 62.088 62.088-27.852 62.088-62.088-27.853-62.088-62.088-62.088z" fill="#171C61" p-id="6839"></path><path d="M557.36 687.175m-55.637 0a55.637 55.637 0 1 0 111.274 0 55.637 55.637 0 1 0-111.274 0Z" fill="#D0DBFB" p-id="6840"></path><path d="M557.361 637.99c27.165 0 49.186 22.021 49.186 49.186s-22.021 49.186-49.186 49.186-49.186-22.021-49.186-49.186 22.021-49.186 49.186-49.186m0-12.901c-34.235 0-62.088 27.852-62.088 62.088s27.852 62.088 62.088 62.088c34.235 0 62.088-27.852 62.088-62.088s-27.852-62.088-62.088-62.088z" fill="#171C61" p-id="6841"></path><path d="M512.001 719.983c-32.011 0-58.056-26.045-58.056-58.056V560.864c0-32.011 26.045-58.056 58.056-58.056s58.056 26.045 58.056 58.056v101.063c0 32.011-26.045 58.056-58.056 58.056z" fill="#EAA9B6" p-id="6842"></path><path d="M512 509.26c28.383 0 51.605 23.222 51.605 51.605v101.06c0 28.383-23.222 51.605-51.605 51.605-28.383 0-51.605-23.222-51.605-51.605v-101.06c-0.001-28.383 23.222-51.605 51.605-51.605m0-12.901c-35.569 0-64.507 28.938-64.507 64.507v101.06c0 35.569 28.938 64.507 64.507 64.507s64.507-28.938 64.507-64.507v-101.06c0-35.57-28.938-64.507-64.507-64.507z" fill="#171C61" p-id="6843"></path><path d="M407.108 856.423a6.451 6.451 0 0 1-6.451-6.451v-60.207a6.451 6.451 0 0 1 12.902 0v60.207a6.45 6.45 0 0 1-6.451 6.451zM616.891 856.423a6.451 6.451 0 0 1-6.451-6.451v-60.207a6.451 6.451 0 0 1 12.902 0v60.207a6.452 6.452 0 0 1-6.451 6.451z" fill="#171C61" p-id="6844"></path><path d="M512.017 683.906c-91.746 0-174.902-61.348-202.229-149.191a211.012 211.012 0 0 1-9.449-62.488v-90.303c0-2.624 0.098-5.358 0.309-8.602 1.329-26.411 7.509-52.059 18.369-76.136 1.931-4.299 4.183-8.844 6.684-13.5 37.085-68.548 108.468-111.123 186.301-111.123 16.155 0 32.225 1.827 47.769 5.427 59.061 13.623 109.539 52.141 138.491 105.683 3.474 6.369 6.756 13.301 9.745 20.584 9.062 22.162 14.237 45.611 15.39 69.698 0.18 2.891 0.268 5.537 0.268 8v90.272c0 21.217-3.178 42.238-9.449 62.482-27.332 87.849-110.476 149.197-202.199 149.197z" fill="#FEC6CF" p-id="6845"></path><path d="M512 179.016c15.933 0 31.415 1.806 46.316 5.258 58.024 13.385 106.662 51.412 134.27 102.469 3.516 6.451 6.644 13.127 9.45 19.965 8.584 20.991 13.777 43.752 14.915 67.556 0.156 2.547 0.26 5.107 0.26 7.692v90.27a204.47 204.47 0 0 1-9.159 60.572c-25.996 83.568-104.243 144.656-196.036 144.656-91.825 0-170.072-61.088-196.068-144.656a204.438 204.438 0 0 1-9.16-60.572v-90.302c0-2.753 0.121-5.475 0.297-8.183 1.321-26.244 7.557-51.171 17.813-73.903 2-4.452 4.193-8.838 6.483-13.095C366.086 222.591 433.947 179.016 512 179.016m0-12.902c-80.206 0-153.762 43.87-191.966 114.49-2.575 4.785-4.893 9.469-6.904 13.948-11.17 24.759-17.54 51.158-18.925 78.449-0.217 3.362-0.318 6.2-0.318 8.923v90.302a217.41 217.41 0 0 0 9.737 64.389c13.534 43.507 41.209 82.627 77.931 110.169 38.004 28.504 83.117 43.57 130.461 43.57 47.33 0 92.434-15.067 130.433-43.57 36.72-27.544 64.393-66.664 77.922-110.154a217.44 217.44 0 0 0 9.742-64.404v-90.27c0-2.553-0.091-5.299-0.278-8.391-1.195-24.795-6.529-48.931-15.857-71.741-3.077-7.5-6.461-14.646-10.064-21.256-29.812-55.131-81.831-94.825-142.698-108.866-16.003-3.706-32.566-5.588-49.216-5.588z" fill="#171C61" p-id="6846"></path><path d="M332.075 532.799a204.445 204.445 0 0 1-9.16-60.573v-90.302c0-2.753 0.121-5.476 0.297-8.183 1.321-26.245 7.557-51.171 17.813-73.904 1.999-4.452 4.193-8.838 6.483-13.095 33.39-61.722 97.478-104.376 171.8-107.52-2.432-0.085-4.854-0.208-7.308-0.208-78.053 0-145.914 43.575-180.619 107.728-2.29 4.257-4.484 8.643-6.483 13.095-10.256 22.733-16.492 47.659-17.813 73.904-0.176 2.707-0.297 5.43-0.297 8.183v90.302a204.45 204.45 0 0 0 9.16 60.573c25.996 83.567 104.243 144.655 196.068 144.655 2.7 0 5.386-0.062 8.062-0.167-88.316-3.455-162.772-63.378-188.003-144.488z" fill="#FFE1E7" p-id="6847"></path><path d="M716.952 374.265c-1.138-23.804-6.331-46.566-14.915-67.557-2.806-6.838-5.935-13.514-9.45-19.965-26.779-49.523-73.373-86.717-129.097-101.126 42.387 18.335 77.411 50.508 99.248 90.891 3.516 6.451 6.644 13.127 9.45 19.965 8.584 20.991 13.777 43.752 14.915 67.556 0.156 2.547 0.26 5.107 0.26 7.692v90.27a204.47 204.47 0 0 1-9.159 60.572C652.207 606.132 573.96 667.22 482.167 667.22c-17.639 0-34.77-2.273-51.133-6.508 24.877 10.767 52.265 16.742 80.982 16.742 91.793 0 170.04-61.088 196.036-144.655a204.477 204.477 0 0 0 9.159-60.573v-90.27c0.001-2.586-0.103-5.145-0.259-7.691z" fill="#EAA9B6" p-id="6848"></path><path d="M424.054 462.308m-18.546 0a18.546 18.546 0 1 0 37.092 0 18.546 18.546 0 1 0-37.092 0Z" fill="#FB778F" p-id="6849"></path><path d="M424.053 450.212c6.652 0 12.095 5.443 12.095 12.095s-5.443 12.095-12.095 12.095-12.095-5.443-12.095-12.095 5.443-12.095 12.095-12.095m0-12.901c-13.783 0-24.996 11.213-24.996 24.996s11.213 24.996 24.996 24.996 24.996-11.213 24.996-24.996c0.001-13.783-11.213-24.996-24.996-24.996z" fill="#171C61" p-id="6850"></path><path d="M599.945 463.115m-18.546 0a18.546 18.546 0 1 0 37.092 0 18.546 18.546 0 1 0-37.092 0Z" fill="#FB778F" p-id="6851"></path><path d="M599.947 451.018c6.652 0 12.095 5.443 12.095 12.095s-5.443 12.095-12.095 12.095c-6.652 0-12.095-5.443-12.095-12.095s5.442-12.095 12.095-12.095m0-12.901c-13.783 0-24.996 11.213-24.996 24.996s11.214 24.996 24.996 24.996c13.783 0 24.996-11.213 24.996-24.996s-11.214-24.996-24.996-24.996z" fill="#171C61" p-id="6852"></path><path d="M512.001 614.995c-15.966 0-30.395-10.063-35.904-25.04-0.728-1.978-0.444-4.189 0.762-5.918s3.184-2.759 5.292-2.759h59.697a6.449 6.449 0 0 1 6.054 8.677c-5.509 14.977-19.938 25.04-35.901 25.04z" fill="#FB778F" p-id="6853"></path><path d="M541.849 587.728c-4.471 12.15-16.148 20.817-29.849 20.817-13.702 0-25.378-8.667-29.849-20.817h59.698m0-12.901h-59.698a12.901 12.901 0 0 0-12.107 17.357c6.441 17.503 23.302 29.263 41.957 29.263s35.516-11.76 41.957-29.263a12.906 12.906 0 0 0-1.526-11.837 12.905 12.905 0 0 0-10.583-5.52z m0 25.802h0.016-0.016z" fill="#171C61" p-id="6854"></path><path d="M297.44 441.095c-17.783 0-32.253-14.47-32.253-32.253v-26.918c0-3.134 0.113-6.34 0.353-10.089 1.515-29.592 8.451-58.305 20.612-85.26 2.18-4.854 4.696-9.941 7.474-15.109 15.85-29.293 37.258-54.509 63.644-74.97 5.714-4.425 12.539-6.766 19.746-6.766 10.054 0 19.349 4.551 25.507 12.489 10.898 14.054 8.331 34.354-5.723 45.252-19.261 14.936-34.871 33.312-46.399 54.62a175.304 175.304 0 0 0-5.427 10.961c-8.882 19.689-13.934 40.647-15.021 62.308l-0.025 0.479c-0.158 2.397-0.233 4.328-0.233 6.085v26.918c-0.001 17.783-14.471 32.253-32.255 32.253z" fill="#6C667F" p-id="6855"></path><path d="M377.017 196.183c7.703-0.001 15.322 3.432 20.41 9.989 8.731 11.26 6.681 27.469-4.58 36.203-19.973 15.487-36.162 34.546-48.119 56.645a181.228 181.228 0 0 0-5.638 11.389c-9.213 20.423-14.451 42.153-15.579 64.626-0.006 0.129-0.016 0.255-0.022 0.384-0.167 2.561-0.246 4.627-0.246 6.504v26.918c0 14.249-11.553 25.803-25.803 25.803-14.249 0-25.803-11.553-25.803-25.803v-26.918c0-2.973 0.107-6.051 0.34-9.673 1.477-28.867 8.224-56.802 20.054-83.024 2.113-4.709 4.567-9.67 7.276-14.706 15.421-28.502 36.241-53.02 61.915-72.929a25.725 25.725 0 0 1 15.795-5.408m0.002-12.902h-0.001c-8.652 0.001-16.846 2.806-23.695 8.112-27.103 21.017-49.092 46.919-65.361 76.988-2.868 5.333-5.453 10.56-7.699 15.563-12.472 27.643-19.596 57.112-21.164 87.565-0.246 3.851-0.361 7.163-0.361 10.415v26.918c0 21.341 17.363 38.704 38.704 38.704s38.704-17.363 38.704-38.704v-26.918c0-1.58 0.069-3.38 0.219-5.665l0.007-0.108 0.006-0.107 0.022-0.378c1.045-20.835 5.908-41.011 14.453-59.952a167.486 167.486 0 0 1 5.242-10.586c11.082-20.483 26.114-38.176 44.661-52.558 16.864-13.08 19.945-37.44 6.869-54.304-7.393-9.524-18.546-14.985-30.606-14.985z" fill="#171C61" p-id="6856"></path><path d="M397.427 206.172a25.682 25.682 0 0 0-12.107-8.615c3.445 10.134 0.333 21.762-8.599 28.691-19.973 15.487-36.162 34.546-48.119 56.645a181.228 181.228 0 0 0-5.638 11.389c-9.213 20.423-14.451 42.153-15.579 64.626-0.006 0.129-0.016 0.255-0.022 0.384-0.167 2.561-0.246 4.627-0.246 6.504v26.918c0 14.249-11.553 25.803-25.803 25.803a25.73 25.73 0 0 1-8.29-1.386c3.456 10.178 13.071 17.513 24.417 17.513 14.249 0 25.803-11.553 25.803-25.803v-26.918c0-1.877 0.079-3.943 0.246-6.504 0.006-0.129 0.016-0.255 0.022-0.384 1.128-22.473 6.366-44.204 15.579-64.626a180.69 180.69 0 0 1 5.638-11.389c11.956-22.099 28.146-41.158 48.119-56.645 11.259-8.734 13.31-24.942 4.579-36.203z" fill="#555068" p-id="6857"></path><path d="M726.558 441.095c-17.783 0-32.253-14.47-32.253-32.253v-26.918c0-1.758-0.076-3.688-0.233-6.085l6.416-0.803-6.441 0.324c-1.087-21.661-6.139-42.619-15.018-62.299a173.646 173.646 0 0 0-5.44-10.986c-11.519-21.292-27.129-39.668-46.389-54.604-14.054-10.898-16.621-31.198-5.723-45.252 6.158-7.937 15.453-12.489 25.507-12.489 7.207 0 14.032 2.34 19.743 6.762 26.389 20.464 47.797 45.681 63.637 74.958 2.788 5.184 5.304 10.271 7.487 15.135 12.158 26.946 19.094 55.659 20.612 85.336 0.236 3.663 0.35 6.87 0.35 10.004v26.918c-0.001 17.782-14.471 32.252-32.255 32.252z" fill="#6C667F" p-id="6858"></path><path d="M646.983 196.183a25.71 25.71 0 0 1 15.794 5.41c25.674 19.91 46.493 44.427 61.914 72.929 2.709 5.036 5.162 9.997 7.276 14.706 11.83 26.222 18.577 54.157 20.054 83.024 0.233 3.622 0.34 6.699 0.34 9.673v26.918c0 14.249-11.553 25.803-25.803 25.803-14.249 0-25.803-11.553-25.803-25.803v-26.918c0-1.877-0.079-3.943-0.246-6.504-0.006-0.129-0.016-0.255-0.022-0.384-1.128-22.473-6.366-44.204-15.579-64.626a180.69 180.69 0 0 0-5.638-11.389c-11.956-22.099-28.146-41.158-48.119-56.645-11.26-8.734-13.311-24.943-4.58-36.203 5.09-6.559 12.708-9.991 20.412-9.991m0-12.902c-12.061 0-23.215 5.461-30.602 14.983-13.078 16.866-9.997 41.226 6.866 54.306 18.548 14.383 33.58 32.076 44.679 52.59a167.593 167.593 0 0 1 5.217 10.538c8.552 18.958 13.415 39.135 14.461 59.985l0.019 0.34 0.005 0.107 0.009 0.13c0.149 2.285 0.219 4.085 0.219 5.665v26.918c0 21.341 17.363 38.704 38.704 38.704s38.704-17.363 38.704-38.704v-26.918c0-3.251-0.115-6.563-0.361-10.415-1.569-30.453-8.693-59.922-21.175-87.588-2.236-4.981-4.821-10.207-7.674-15.512-16.285-30.098-38.273-55.999-65.371-77.013-6.856-5.311-15.05-8.116-23.7-8.116z" fill="#171C61" p-id="6859"></path><path d="M752.021 372.252c-1.477-28.867-8.224-56.802-20.054-83.024-2.113-4.709-4.567-9.67-7.276-14.706-12.541-23.179-28.711-43.67-48.099-61.244 12.36 13.654 23.09 28.7 31.973 45.117 2.709 5.036 5.162 9.997 7.276 14.706 11.83 26.222 18.577 54.157 20.054 83.024 0.233 3.622 0.34 6.699 0.34 9.673v26.918c0 14.249-11.553 25.803-25.803 25.803a25.73 25.73 0 0 1-8.29-1.386c3.456 10.178 13.071 17.513 24.416 17.513 14.249 0 25.803-11.553 25.803-25.803v-26.918c0.001-2.974-0.106-6.051-0.34-9.673zM624.031 233.758a25.66 25.66 0 0 0 7.122 8.618c3.023 2.344 5.929 4.797 8.778 7.303a179.886 179.886 0 0 0-15.9-15.921z" fill="#555068" p-id="6860"></path><path d="M406.135 635.116a6.451 6.451 0 0 1-6.451-6.451c0-56.355 45.851-102.203 102.206-102.203a6.451 6.451 0 0 1 6.451 6.451v32.364c0 38.509-31.331 69.839-69.839 69.839h-32.367z" fill="#FC8865" p-id="6861"></path><path d="M501.89 532.912v32.365c0 35.009-28.38 63.389-63.389 63.389h-32.366c0-52.883 42.871-95.754 95.755-95.754m0-12.901c-59.913 0-108.656 48.742-108.656 108.655 0 7.125 5.776 12.901 12.901 12.901h32.366c42.066 0 76.29-34.224 76.29-76.29v-32.365c0-7.125-5.776-12.901-12.901-12.901z" fill="#171C61" p-id="6862"></path><path d="M501.89 543.074v-10.161c-52.883 0-95.754 42.87-95.754 95.754h10.161c4.532-45.158 40.436-81.061 85.593-85.593z" fill="#FFB9A9" p-id="6863"></path><path d="M501.889 532.912a96.98 96.98 0 0 0-9.676 0.485v22.204c0 35.009-28.38 63.389-63.389 63.389H406.62a96.98 96.98 0 0 0-0.485 9.676H438.5c35.009 0 63.389-28.38 63.389-63.389v-32.365z" fill="#EA6D50" p-id="6864"></path><path d="M580.99 635.116c-38.509 0-69.839-31.331-69.839-69.839v-32.364a6.451 6.451 0 0 1 6.451-6.451c56.355 0 102.206 45.848 102.206 102.203a6.451 6.451 0 0 1-6.451 6.451H580.99z" fill="#FC8865" p-id="6865"></path><path d="M517.601 532.912c52.883 0 95.754 42.87 95.754 95.754H580.99c-35.009 0-63.389-28.38-63.389-63.389v-32.365m0-12.901c-7.125 0-12.901 5.776-12.901 12.901v32.365c0 42.066 34.224 76.29 76.29 76.29h32.366c7.125 0 12.901-5.776 12.901-12.901 0-59.913-48.743-108.655-108.656-108.655z" fill="#171C61" p-id="6866"></path><path d="M517.601 543.074v-10.161c52.883 0 95.754 42.87 95.754 95.754h-10.161c-4.532-45.158-40.436-81.061-85.593-85.593z" fill="#FFB9A9" p-id="6867"></path><path d="M517.601 532.912c3.266 0 6.494 0.166 9.676 0.485v22.204c0 35.009 28.38 63.389 63.389 63.389h22.204a96.98 96.98 0 0 1 0.485 9.676H580.99c-35.009 0-63.389-28.38-63.389-63.389v-32.365z" fill="#EA6D50" p-id="6868"></path><path d="M417.328 387.027c35.341 0 63.991 28.65 63.991 63.991 0 35.342-28.65 63.992-63.991 63.992s-63.991-28.65-63.991-63.992c0-35.341 28.65-63.991 63.991-63.991m0-12.901c-42.399 0-76.892 34.494-76.892 76.892s34.494 76.893 76.892 76.893 76.893-34.494 76.893-76.893-34.494-76.892-76.893-76.892zM606.672 387.027c35.341 0 63.991 28.65 63.991 63.991 0 35.342-28.65 63.992-63.991 63.992s-63.991-28.65-63.991-63.992c-0.001-35.341 28.649-63.991 63.991-63.991m0-12.901c-42.399 0-76.893 34.494-76.893 76.892s34.494 76.893 76.893 76.893 76.892-34.494 76.892-76.893-34.494-76.892-76.892-76.892z" fill="#171C61" p-id="6869"></path><path d="M544.576 424.452h-65.152a6.451 6.451 0 0 1 0-12.902h65.152a6.451 6.451 0 0 1 0 12.902z" fill="#171C61" p-id="6870"></path><path d="M438.275 225.823a6.439 6.439 0 0 1-5.477-3.036 6.446 6.446 0 0 1 2.057-8.885 157.213 157.213 0 0 1 7.377-4.337 6.452 6.452 0 0 1 6.237 11.295 146.673 146.673 0 0 0-3.777 2.161c-1.005 0.595-2.01 1.203-3.008 1.824a6.423 6.423 0 0 1-3.409 0.978zM469.051 211.085a6.454 6.454 0 0 1-2.123-12.546c21.273-7.408 43.482-10.265 66.006-8.435 3.553 0.283 6.199 3.395 5.912 6.945s-3.402 6.189-6.945 5.912c-20.716-1.66-41.158 0.942-60.727 7.761a6.421 6.421 0 0 1-2.123 0.363z" fill="#FFFFFF" p-id="6871"></path></svg>